<svg width="18" height="16" viewBox="0 0 18 16" fill="none" xmlns="http://www.w3.org/2000/svg">
<path fill-rule="evenodd" clip-rule="evenodd" d="M14 2.16667C14.442 2.16667 14.8659 2.34226 15.1785 2.65482C15.4911 2.96738 15.6667 3.39131 15.6667 3.83333V12.1667C15.6667 12.6087 15.4911 13.0326 15.1785 13.3452C14.8659 13.6577 14.442 13.8333 14 13.8333H8.16666C7.72463 13.8333 7.30071 13.6577 6.98814 13.3452C6.67558 13.0326 6.49999 12.6087 6.49999 12.1667V11.3333C6.49999 10.8731 6.12689 10.5 5.66666 10.5C5.20642 10.5 4.83332 10.8731 4.83332 11.3333V12.1667C4.83332 13.0507 5.18451 13.8986 5.80963 14.5237C6.43476 15.1488 7.2826 15.5 8.16666 15.5H14C14.884 15.5 15.7319 15.1488 16.357 14.5237C16.9821 13.8986 17.3333 13.0507 17.3333 12.1667V3.83333C17.3333 2.94928 16.9821 2.10143 16.357 1.47631C15.7319 0.85119 14.884 0.5 14 0.5H8.16666C7.2826 0.5 6.43475 0.851189 5.80963 1.47631C5.18451 2.10143 4.83332 2.94928 4.83332 3.83333V4.66667C4.83332 5.1269 5.20642 5.5 5.66666 5.5C6.12689 5.5 6.49999 5.1269 6.49999 4.66667V3.83333C6.49999 3.39131 6.67558 2.96738 6.98814 2.65482C7.30071 2.34226 7.72463 2.16667 8.16666 2.16667H14ZM9.24407 4.07741C8.91863 4.40285 8.91863 4.93049 9.24407 5.25592L11.1548 7.16667H1.49999C1.03975 7.16667 0.666656 7.53976 0.666656 8C0.666656 8.46024 1.03975 8.83333 1.49999 8.83333H11.1548L9.24407 10.7441C8.91863 11.0695 8.91863 11.5972 9.24407 11.9226C9.5695 12.248 10.0971 12.248 10.4226 11.9226L13.7559 8.58926C14.0813 8.26382 14.0813 7.73618 13.7559 7.41074L10.4226 4.07741C10.0971 3.75197 9.5695 3.75197 9.24407 4.07741Z" fill="white"/>
</svg>
