<svg width="17" height="14" viewBox="0 0 17 14" fill="none" xmlns="http://www.w3.org/2000/svg">
<path fill-rule="evenodd" clip-rule="evenodd" d="M5.97283 1.67391C4.92228 1.67391 4.07065 2.52555 4.07065 3.57609C4.07065 4.62663 4.92228 5.47826 5.97283 5.47826C7.02337 5.47826 7.875 4.62663 7.875 3.57609C7.875 2.52555 7.02337 1.67391 5.97283 1.67391ZM2.39674 3.57609C2.39674 1.60107 3.99781 0 5.97283 0C7.94784 0 9.54891 1.60107 9.54891 3.57609C9.54891 5.55111 7.94784 7.15217 5.97283 7.15217C3.99781 7.15217 2.39674 5.55111 2.39674 3.57609ZM13.8478 3.42391C14.3101 3.42391 14.6848 3.79863 14.6848 4.26087V5.47826H15.9022C16.3644 5.47826 16.7391 5.85298 16.7391 6.31522C16.7391 6.77746 16.3644 7.15217 15.9022 7.15217H14.6848V8.36957C14.6848 8.8318 14.3101 9.20652 13.8478 9.20652C13.3856 9.20652 13.0109 8.8318 13.0109 8.36957V7.15217H11.7935C11.3312 7.15217 10.9565 6.77746 10.9565 6.31522C10.9565 5.85298 11.3312 5.47826 11.7935 5.47826H13.0109V4.26087C13.0109 3.79863 13.3856 3.42391 13.8478 3.42391ZM1.04741 9.2648C1.71806 8.59416 2.62765 8.21739 3.57609 8.21739H8.36957C9.318 8.21739 10.2276 8.59416 10.8982 9.2648C11.5689 9.93545 11.9457 10.845 11.9457 11.7935V13.163C11.9457 13.6253 11.5709 14 11.1087 14C10.6465 14 10.2717 13.6253 10.2717 13.163V11.7935C10.2717 11.289 10.0713 10.8052 9.71461 10.4484C9.35788 10.0917 8.87405 9.8913 8.36957 9.8913H3.57609C3.0716 9.8913 2.58777 10.0917 2.23105 10.4484C1.87432 10.8052 1.67391 11.289 1.67391 11.7935V13.163C1.67391 13.6253 1.2992 14 0.836957 14C0.374718 14 0 13.6253 0 13.163V11.7935C0 10.845 0.376766 9.93545 1.04741 9.2648Z" fill="#F9AE17"/>
</svg>
